<?xml version="1.0" encoding="UTF-8"?>
<!DOCTYPE svg PUBLIC "-//W3C//DTD SVG 1.1//EN" "http://www.w3.org/Graphics/SVG/1.1/DTD/svg11.dtd">
<svg xmlns="http://www.w3.org/2000/svg" version="1.1" width="718px" height="255px" style="shape-rendering:geometricPrecision; text-rendering:geometricPrecision; image-rendering:optimizeQuality; fill-rule:evenodd; clip-rule:evenodd" xmlns:xlink="http://www.w3.org/1999/xlink">
<g><path style="opacity:1" fill="#fefefe" d="M -0.5,-0.5 C 238.833,-0.5 478.167,-0.5 717.5,-0.5C 717.5,84.5 717.5,169.5 717.5,254.5C 478.167,254.5 238.833,254.5 -0.5,254.5C -0.5,169.5 -0.5,84.5 -0.5,-0.5 Z"/></g>
<g><path style="opacity:1" fill="#060606" d="M 105.5,57.5 C 109.239,59.1016 113.239,60.1016 117.5,60.5C 129.876,65.1879 141.209,71.6879 151.5,80C 148.69,84.6374 145.356,88.8041 141.5,92.5C 138.471,91.3237 135.804,89.657 133.5,87.5C 133.027,86.0937 132.027,85.427 130.5,85.5C 125.166,82.0865 119.499,79.4199 113.5,77.5C 112.01,75.7202 110.01,75.0535 107.5,75.5C 102.93,74.559 98.263,74.2256 93.5,74.5C 90.8478,74.4095 88.5145,75.0762 86.5,76.5C 76.7885,81.0483 69.9552,88.3816 66,98.5C 60.3779,117.839 59.0446,137.506 62,157.5C 64.0029,171.006 69.8362,182.506 79.5,192C 81.5766,193.705 83.91,194.872 86.5,195.5C 88.1016,197.074 90.1016,197.741 92.5,197.5C 95.5,197.5 98.5,197.5 101.5,197.5C 104.877,197.932 107.877,197.265 110.5,195.5C 113.01,195.946 115.01,195.28 116.5,193.5C 124.381,189.636 132.048,185.302 139.5,180.5C 140.496,180.586 141.329,180.252 142,179.5C 142.377,180.942 143.21,181.942 144.5,182.5C 146.803,184.978 148.969,187.645 151,190.5C 151.749,191.635 151.583,192.635 150.5,193.5C 139.293,201.436 127.293,207.769 114.5,212.5C 103.527,213.38 92.5267,213.713 81.5,213.5C 61.3346,205.333 48.6679,190.666 43.5,169.5C 40.8266,152.293 39.8266,134.96 40.5,117.5C 42.317,93.8679 52.9836,75.3679 72.5,62C 76.079,61.2081 79.4123,59.8747 82.5,58C 90.1594,57.5003 97.8261,57.3336 105.5,57.5 Z"/></g>
<g><path style="opacity:1" fill="#929292" d="M 105.5,57.5 C 109.837,57.5841 113.837,58.5841 117.5,60.5C 113.239,60.1016 109.239,59.1016 105.5,57.5 Z"/></g>
<g><path style="opacity:1" fill="#070707" d="M 222.5,57.5 C 242.64,54.8662 260.64,59.6995 276.5,72C 283.783,78.7799 288.783,86.9466 291.5,96.5C 291.41,99.1522 292.076,101.485 293.5,103.5C 294.434,104.568 294.768,105.901 294.5,107.5C 294.335,110.518 294.502,113.518 295,116.5C 295.278,117.416 295.778,118.082 296.5,118.5C 299.449,139.261 297.283,159.594 290,179.5C 286.75,186.34 282.75,192.673 278,198.5C 272.139,203.873 265.639,208.207 258.5,211.5C 255.572,211.565 252.905,212.232 250.5,213.5C 213.302,220.98 188.302,206.98 175.5,171.5C 175.435,168.572 174.768,165.905 173.5,163.5C 171.936,152.563 171.27,141.563 171.5,130.5C 170.987,109.207 177.154,90.2073 190,73.5C 196.649,66.6018 204.483,61.9351 213.5,59.5C 216.781,59.5797 219.781,58.913 222.5,57.5 Z"/></g>
<g><path style="opacity:1" fill="#808080" d="M 222.5,57.5 C 219.781,58.913 216.781,59.5797 213.5,59.5C 216.171,57.8819 219.171,57.2153 222.5,57.5 Z"/></g>
<g><path style="opacity:1" fill="#070707" d="M 331.5,58.5 C 349.833,58.5 368.167,58.5 386.5,58.5C 389.219,59.913 392.219,60.5797 395.5,60.5C 420.511,66.0114 435.678,81.3447 441,106.5C 444.166,124.806 444.332,143.14 441.5,161.5C 440.232,163.905 439.565,166.572 439.5,169.5C 433.061,190.273 419.394,203.606 398.5,209.5C 394.613,209.646 390.946,210.313 387.5,211.5C 387.167,211.5 386.833,211.5 386.5,211.5C 368.167,211.5 349.833,211.5 331.5,211.5C 331.5,160.5 331.5,109.5 331.5,58.5 Z"/></g>
<g><path style="opacity:1" fill="#8d8d8d" d="M 386.5,58.5 C 389.781,58.4203 392.781,59.087 395.5,60.5C 392.219,60.5797 389.219,59.913 386.5,58.5 Z"/></g>
<g><path style="opacity:1" fill="#616161" d="M 477.5,58.5 C 477.5,109.5 477.5,160.5 477.5,211.5C 483.5,211.5 489.5,211.5 495.5,211.5C 495.5,160.5 495.5,109.5 495.5,58.5C 496.499,109.664 496.832,160.997 496.5,212.5C 489.833,212.5 483.167,212.5 476.5,212.5C 476.168,160.997 476.501,109.664 477.5,58.5 Z"/></g>
<g><path style="opacity:1" fill="#000000" d="M 477.5,58.5 C 483.5,58.5 489.5,58.5 495.5,58.5C 495.5,109.5 495.5,160.5 495.5,211.5C 489.5,211.5 483.5,211.5 477.5,211.5C 477.5,160.5 477.5,109.5 477.5,58.5 Z"/></g>
<g><path style="opacity:1" fill="#808080" d="M 241.5,73.5 C 232.223,73.1585 223.223,74.4918 214.5,77.5C 217.871,74.6605 221.871,73.1605 226.5,73C 231.684,72.1837 236.684,72.3503 241.5,73.5 Z"/></g>
<g><path style="opacity:1" fill="#fdfdfd" d="M 241.5,73.5 C 259.95,77.6166 270.95,88.95 274.5,107.5C 274.41,110.152 275.076,112.485 276.5,114.5C 276.5,115.5 276.5,116.5 276.5,117.5C 277.166,126.485 277.499,135.485 277.5,144.5C 277.857,162.616 271.857,178.116 259.5,191C 246.558,198.633 232.891,200.467 218.5,196.5C 217.486,195.326 216.153,194.66 214.5,194.5C 210.328,192.842 206.828,190.175 204,186.5C 200.626,181.086 197.793,175.419 195.5,169.5C 194.669,166.341 193.669,163.341 192.5,160.5C 189.194,140.978 190.028,121.645 195,102.5C 197.676,91.1302 204.176,82.7969 214.5,77.5C 223.223,74.4918 232.223,73.1585 241.5,73.5 Z"/></g>
<g><path style="opacity:1" fill="#989898" d="M 93.5,74.5 C 91.4855,75.9238 89.1522,76.5905 86.5,76.5C 88.5145,75.0762 90.8478,74.4095 93.5,74.5 Z"/></g>
<g><path style="opacity:1" fill="#5a5a5a" d="M 107.5,75.5 C 110.01,75.0535 112.01,75.7202 113.5,77.5C 111.214,77.405 109.214,76.7384 107.5,75.5 Z"/></g>
<g><path style="opacity:1" fill="#fefefe" d="M 384.5,75.5 C 387.589,76.7846 390.922,77.4512 394.5,77.5C 401.675,80.6813 408.175,85.0146 414,90.5C 416.148,94.1442 418.148,97.8108 420,101.5C 421.035,106.656 422.202,111.656 423.5,116.5C 424.211,133.304 423.211,149.97 420.5,166.5C 416.879,177.957 409.545,186.124 398.5,191C 394.712,192.15 391.046,193.483 387.5,195C 375.171,195.5 362.838,195.667 350.5,195.5C 350.5,155.5 350.5,115.5 350.5,75.5C 361.833,75.5 373.167,75.5 384.5,75.5 Z"/></g>
<g><path style="opacity:1" fill="#727272" d="M 384.5,75.5 C 388.122,75.322 391.456,75.9886 394.5,77.5C 390.922,77.4512 387.589,76.7846 384.5,75.5 Z"/></g>
<g><path style="opacity:1" fill="#40a6dd" d="M 587.5,84.5 C 622.852,98.6699 657.519,114.337 691.5,131.5C 692.806,137.054 692.806,142.554 691.5,148C 657.258,162.781 622.925,177.614 588.5,192.5C 587.167,185.833 587.167,179.167 588.5,172.5C 615.62,161.44 642.62,150.106 669.5,138.5C 641.955,127.729 614.621,116.396 587.5,104.5C 587.5,97.8333 587.5,91.1667 587.5,84.5 Z"/></g>
<g><path style="opacity:1" fill="#6c6c6c" d="M 130.5,85.5 C 132.027,85.427 133.027,86.0937 133.5,87.5C 131.973,87.573 130.973,86.9063 130.5,85.5 Z"/></g>
<g><path style="opacity:1" fill="#656565" d="M 291.5,96.5 C 292.924,98.5145 293.59,100.848 293.5,103.5C 292.076,101.485 291.41,99.1522 291.5,96.5 Z"/></g>
<g><path style="opacity:1" fill="#767676" d="M 274.5,107.5 C 275.924,109.515 276.59,111.848 276.5,114.5C 275.076,112.485 274.41,110.152 274.5,107.5 Z"/></g>
<g><path style="opacity:1" fill="#4c4c4c" d="M 294.5,107.5 C 295.903,110.909 296.57,114.575 296.5,118.5C 295.778,118.082 295.278,117.416 295,116.5C 294.502,113.518 294.335,110.518 294.5,107.5 Z"/></g>
<g><path style="opacity:1" fill="#dcdcdc" d="M 40.5,117.5 C 39.8266,134.96 40.8266,152.293 43.5,169.5C 41.4181,164.492 40.2515,159.158 40,153.5C 39.1737,141.326 39.3403,129.326 40.5,117.5 Z"/></g>
<g><path style="opacity:1" fill="#6f6f6f" d="M 276.5,117.5 C 277.931,122.933 278.598,128.599 278.5,134.5C 278.498,138.018 278.165,141.351 277.5,144.5C 277.499,135.485 277.166,126.485 276.5,117.5 Z"/></g>
<g><path style="opacity:1" fill="#a4a4a4" d="M 171.5,130.5 C 171.27,141.563 171.936,152.563 173.5,163.5C 172.144,160.423 171.311,157.09 171,153.5C 170.178,145.655 170.344,137.989 171.5,130.5 Z"/></g>
<g><path style="opacity:1" fill="#818181" d="M 423.5,116.5 C 424.66,128.326 424.826,140.326 424,152.5C 423.746,157.516 422.579,162.183 420.5,166.5C 423.211,149.97 424.211,133.304 423.5,116.5 Z"/></g>
<g><path style="opacity:1" fill="#595959" d="M 192.5,160.5 C 193.669,163.341 194.669,166.341 195.5,169.5C 193.138,167.081 192.138,164.081 192.5,160.5 Z"/></g>
<g><path style="opacity:1" fill="#8f8f8f" d="M 441.5,161.5 C 441.706,164.495 441.04,167.162 439.5,169.5C 439.565,166.572 440.232,163.905 441.5,161.5 Z"/></g>
<g><path style="opacity:1" fill="#a4a4a4" d="M 173.5,163.5 C 174.768,165.905 175.435,168.572 175.5,171.5C 173.96,169.162 173.294,166.495 173.5,163.5 Z"/></g>
<g><path style="opacity:1" fill="#535353" d="M 144.5,182.5 C 143.21,181.942 142.377,180.942 142,179.5C 141.329,180.252 140.496,180.586 139.5,180.5C 142.137,177.779 143.804,178.446 144.5,182.5 Z"/></g>
<g><path style="opacity:1" fill="#535353" d="M 116.5,193.5 C 115.01,195.28 113.01,195.946 110.5,195.5C 112.214,194.262 114.214,193.595 116.5,193.5 Z"/></g>
<g><path style="opacity:1" fill="#6c6c6c" d="M 214.5,194.5 C 216.153,194.66 217.486,195.326 218.5,196.5C 216.62,196.771 215.287,196.104 214.5,194.5 Z"/></g>
<g><path style="opacity:1" fill="#8d8d8d" d="M 86.5,195.5 C 88.8984,195.259 90.8984,195.926 92.5,197.5C 90.1016,197.741 88.1016,197.074 86.5,195.5 Z"/></g>
<g><path style="opacity:1" fill="#5c5c5c" d="M 110.5,195.5 C 107.877,197.265 104.877,197.932 101.5,197.5C 104.311,196.525 107.311,195.858 110.5,195.5 Z"/></g>
<g><path style="opacity:1" fill="#888888" d="M 398.5,209.5 C 395.124,211.082 391.458,211.749 387.5,211.5C 390.946,210.313 394.613,209.646 398.5,209.5 Z"/></g>
<g><path style="opacity:1" fill="#757575" d="M 331.5,58.5 C 331.5,109.5 331.5,160.5 331.5,211.5C 349.833,211.5 368.167,211.5 386.5,211.5C 368.007,212.497 349.341,212.83 330.5,212.5C 330.168,160.997 330.501,109.664 331.5,58.5 Z"/></g>
<g><path style="opacity:1" fill="#979797" d="M 258.5,211.5 C 256.162,213.04 253.495,213.706 250.5,213.5C 252.905,212.232 255.572,211.565 258.5,211.5 Z"/></g>
<g><path style="opacity:1" fill="#737373" d="M 114.5,212.5 C 113.391,213.29 112.058,213.79 110.5,214C 100.658,214.825 90.9911,214.658 81.5,213.5C 92.5267,213.713 103.527,213.38 114.5,212.5 Z"/></g>
</svg>
