<?xml version="1.0" encoding="UTF-8"?>
<!DOCTYPE svg PUBLIC "-//W3C//DTD SVG 1.1//EN" "http://www.w3.org/Graphics/SVG/1.1/DTD/svg11.dtd">
<svg xmlns="http://www.w3.org/2000/svg" version="1.1" width="718px" height="255px" style="shape-rendering:geometricPrecision; text-rendering:geometricPrecision; image-rendering:optimizeQuality; fill-rule:evenodd; clip-rule:evenodd" xmlns:xlink="http://www.w3.org/1999/xlink">
<g><path style="opacity:0.996" fill="#010101" d="M -0.5,-0.5 C 238.833,-0.5 478.167,-0.5 717.5,-0.5C 717.5,84.5 717.5,169.5 717.5,254.5C 478.167,254.5 238.833,254.5 -0.5,254.5C -0.5,169.5 -0.5,84.5 -0.5,-0.5 Z"/></g>
<g><path style="opacity:1" fill="#f3f3f3" d="M 221.5,56.5 C 244.579,53.9976 264.412,60.6643 281,76.5C 287.58,84.734 291.747,94.0673 293.5,104.5C 293.156,109.122 293.823,113.455 295.5,117.5C 298.69,138.589 296.524,159.256 289,179.5C 283.343,194.324 273.176,204.657 258.5,210.5C 254.838,210.723 251.505,211.723 248.5,213.5C 207.969,219.95 182.969,203.283 173.5,163.5C 171.803,148.56 171.136,133.56 171.5,118.5C 172.871,97.2583 181.538,79.7583 197.5,66C 202.036,62.7315 207.036,60.5648 212.5,59.5C 215.854,59.2525 218.854,58.2525 221.5,56.5 Z"/></g>
<g><path style="opacity:1" fill="#f4f4f4" d="M 107.5,57.5 C 109.515,58.9238 111.848,59.5905 114.5,59.5C 127.384,63.8867 139.217,70.22 150,78.5C 150.667,79.5 150.667,80.5 150,81.5C 147,85.1667 144,88.8333 141,92.5C 131.589,85.0432 121.089,79.5432 109.5,76C 96.67,72.0053 85.3367,74.3386 75.5,83C 67.6618,90.8459 63.1618,100.346 62,111.5C 59.5681,129.977 60.2348,148.311 64,166.5C 67.4313,177.582 73.5979,186.748 82.5,194C 84.1545,194.608 85.8211,195.108 87.5,195.5C 87.6107,196.117 87.944,196.617 88.5,197C 94.5,197.667 100.5,197.667 106.5,197C 107.416,196.722 108.082,196.222 108.5,195.5C 120.18,191.153 131.18,185.486 141.5,178.5C 144.111,182.285 146.944,185.952 150,189.5C 150.781,190.944 150.614,192.277 149.5,193.5C 138.751,201.241 127.084,207.241 114.5,211.5C 103.185,212.294 91.8517,212.627 80.5,212.5C 63.5128,205.679 51.6795,193.679 45,176.5C 43.2546,172.004 42.4213,167.338 42.5,162.5C 40.8141,146.891 40.1475,131.224 40.5,115.5C 42.5378,92.2566 53.2045,74.0899 72.5,61C 75.376,60.5621 78.0427,59.5621 80.5,58C 89.4938,57.5002 98.4938,57.3336 107.5,57.5 Z"/></g>
<g><path style="opacity:1" fill="#676767" d="M 221.5,56.5 C 218.854,58.2525 215.854,59.2525 212.5,59.5C 215.084,57.5275 218.084,56.5275 221.5,56.5 Z"/></g>
<g><path style="opacity:1" fill="#585858" d="M 107.5,57.5 C 110.152,57.4095 112.485,58.0762 114.5,59.5C 111.848,59.5905 109.515,58.9238 107.5,57.5 Z"/></g>
<g><path style="opacity:1" fill="#f6f6f6" d="M 386.5,58.5 C 386.833,58.5 387.167,58.5 387.5,58.5C 389.905,59.7682 392.572,60.4349 395.5,60.5C 415.109,64.2229 428.942,75.2229 437,93.5C 439.614,100.621 441.28,107.954 442,115.5C 442.707,130.183 442.54,144.849 441.5,159.5C 439.723,162.505 438.723,165.838 438.5,169.5C 432.402,189.932 419.068,202.932 398.5,208.5C 395.219,208.42 392.219,209.087 389.5,210.5C 388.833,210.5 388.167,210.5 387.5,210.5C 368.833,210.5 350.167,210.5 331.5,210.5C 331.5,159.833 331.5,109.167 331.5,58.5C 349.833,58.5 368.167,58.5 386.5,58.5 Z"/></g>
<g><path style="opacity:1" fill="#7b7b7b" d="M 387.5,58.5 C 390.495,58.2938 393.162,58.9605 395.5,60.5C 392.572,60.4349 389.905,59.7682 387.5,58.5 Z"/></g>
<g><path style="opacity:1" fill="#727272" d="M 241.5,73.5 C 232.64,73.0008 223.974,74.0008 215.5,76.5C 216.975,74.5905 218.975,73.4238 221.5,73C 228.346,72.1794 235.013,72.346 241.5,73.5 Z"/></g>
<g><path style="opacity:1" fill="#030303" d="M 241.5,73.5 C 255.191,76.2576 265.025,83.9243 271,96.5C 272.639,102.171 274.139,107.838 275.5,113.5C 276.228,126.153 276.561,138.82 276.5,151.5C 275.034,166.259 269.367,179.093 259.5,190C 242.573,199.455 225.573,199.789 208.5,191C 203.3,186.108 199.466,180.275 197,173.5C 195.53,168.757 193.864,164.091 192,159.5C 189.268,139.3 190.268,119.3 195,99.5C 198.53,88.8081 205.363,81.1414 215.5,76.5C 223.974,74.0008 232.64,73.0008 241.5,73.5 Z"/></g>
<g><path style="opacity:1" fill="#7f7f7f" d="M 384.5,75.5 C 373.167,75.5 361.833,75.5 350.5,75.5C 350.5,115.167 350.5,154.833 350.5,194.5C 360.167,194.5 369.833,194.5 379.5,194.5C 369.681,195.494 359.681,195.827 349.5,195.5C 349.5,155.167 349.5,114.833 349.5,74.5C 361.345,74.1717 373.012,74.5051 384.5,75.5 Z"/></g>
<g><path style="opacity:1" fill="#010101" d="M 384.5,75.5 C 395.96,77.1471 405.793,82.1471 414,90.5C 418.53,97.9257 421.364,105.926 422.5,114.5C 422.778,130.879 422.111,147.212 420.5,163.5C 414.125,183.181 400.458,193.514 379.5,194.5C 369.833,194.5 360.167,194.5 350.5,194.5C 350.5,154.833 350.5,115.167 350.5,75.5C 361.833,75.5 373.167,75.5 384.5,75.5 Z"/></g>
<g><path style="opacity:1" fill="#38a2d8" d="M 586.5,83.5 C 621.641,97.9968 656.308,113.663 690.5,130.5C 691.663,136.137 691.83,141.804 691,147.5C 656.626,162.523 622.293,177.523 588,192.5C 585.967,185.412 586.134,178.412 588.5,171.5C 615.126,160.236 641.793,149.069 668.5,138C 641.217,127.517 614.217,116.35 587.5,104.5C 586.503,97.5316 586.17,90.5316 586.5,83.5 Z"/></g>
<g><path style="opacity:1" fill="#a1a1a1" d="M 495.5,107.5 C 495.5,142.167 495.5,176.833 495.5,211.5C 489.167,211.5 482.833,211.5 476.5,211.5C 476.5,176.833 476.5,142.167 476.5,107.5C 476.5,90.8333 476.5,74.1667 476.5,57.5C 482.833,57.5 489.167,57.5 495.5,57.5C 495.5,74.1667 495.5,90.8333 495.5,107.5 Z"/></g>
<g><path style="opacity:1" fill="#fefffe" d="M 477.5,58.5 C 483.167,58.5 488.833,58.5 494.5,58.5C 494.5,109.167 494.5,159.833 494.5,210.5C 488.833,210.5 483.167,210.5 477.5,210.5C 477.5,159.833 477.5,109.167 477.5,58.5 Z"/></g>
<g><path style="opacity:1" fill="#828282" d="M 386.5,58.5 C 368.167,58.5 349.833,58.5 331.5,58.5C 331.5,109.167 331.5,159.833 331.5,210.5C 350.167,210.5 368.833,210.5 387.5,210.5C 379.016,211.493 370.349,211.826 361.5,211.5C 351.167,211.5 340.833,211.5 330.5,211.5C 330.5,178.833 330.5,146.167 330.5,113.5C 330.5,94.8333 330.5,76.1667 330.5,57.5C 349.341,57.1698 368.007,57.5031 386.5,58.5 Z"/></g>
<g><path style="opacity:1" fill="#a2a2a2" d="M 293.5,104.5 C 295.054,108.567 295.72,112.9 295.5,117.5C 293.823,113.455 293.156,109.122 293.5,104.5 Z"/></g>
<g><path style="opacity:1" fill="#919191" d="M 275.5,113.5 C 277.017,120.772 277.684,128.272 277.5,136C 277.499,141.344 277.166,146.511 276.5,151.5C 276.561,138.82 276.228,126.153 275.5,113.5 Z"/></g>
<g><path style="opacity:1" fill="#4a4a4a" d="M 476.5,107.5 C 476.5,142.167 476.5,176.833 476.5,211.5C 482.833,211.5 489.167,211.5 495.5,211.5C 495.5,176.833 495.5,142.167 495.5,107.5C 496.498,142.329 496.832,177.329 496.5,212.5C 489.5,212.5 482.5,212.5 475.5,212.5C 475.168,177.329 475.502,142.329 476.5,107.5 Z"/></g>
<g><path style="opacity:1" fill="#434343" d="M 330.5,113.5 C 330.5,146.167 330.5,178.833 330.5,211.5C 340.833,211.5 351.167,211.5 361.5,211.5C 351.013,212.494 340.346,212.828 329.5,212.5C 329.168,179.329 329.502,146.329 330.5,113.5 Z"/></g>
<g><path style="opacity:1" fill="#434343" d="M 40.5,115.5 C 40.1475,131.224 40.8141,146.891 42.5,162.5C 40.9328,161.319 40.0995,159.653 40,157.5C 39.1727,143.327 39.3393,129.327 40.5,115.5 Z"/></g>
<g><path style="opacity:1" fill="#797979" d="M 422.5,114.5 C 423.661,128.327 423.827,142.327 423,156.5C 422.61,159.104 421.776,161.438 420.5,163.5C 422.111,147.212 422.778,130.879 422.5,114.5 Z"/></g>
<g><path style="opacity:1" fill="#626262" d="M 171.5,118.5 C 171.136,133.56 171.803,148.56 173.5,163.5C 172.224,161.438 171.39,159.104 171,156.5C 170.173,143.66 170.34,130.993 171.5,118.5 Z"/></g>
<g><path style="opacity:1" fill="#6a6a6a" d="M 441.5,159.5 C 441.277,163.162 440.277,166.495 438.5,169.5C 438.723,165.838 439.723,162.505 441.5,159.5 Z"/></g>
<g><path style="opacity:1" fill="#898989" d="M 87.5,195.5 C 94.5,196.833 101.5,196.833 108.5,195.5C 108.082,196.222 107.416,196.722 106.5,197C 100.5,197.667 94.5,197.667 88.5,197C 87.944,196.617 87.6107,196.117 87.5,195.5 Z"/></g>
<g><path style="opacity:1" fill="#757575" d="M 398.5,208.5 C 395.781,209.913 392.781,210.58 389.5,210.5C 392.219,209.087 395.219,208.42 398.5,208.5 Z"/></g>
<g><path style="opacity:1" fill="#666666" d="M 258.5,210.5 C 255.495,212.277 252.162,213.277 248.5,213.5C 251.505,211.723 254.838,210.723 258.5,210.5 Z"/></g>
<g><path style="opacity:1" fill="#878787" d="M 114.5,211.5 C 114.082,212.222 113.416,212.722 112.5,213C 101.659,213.825 90.992,213.659 80.5,212.5C 91.8517,212.627 103.185,212.294 114.5,211.5 Z"/></g>
</svg>
